<svg xmlns="http://www.w3.org/2000/svg" width="600" height="900" viewBox="0 0 600 900">
  <g>
    <g>
      <rect x="0.5" y="0.5" width="599" height="899" rx="49.5" style="fill: #fff"/>
      <path d="M550,1a49.05,49.05,0,0,1,49,49V850a49.05,49.05,0,0,1-49,49H50A49.05,49.05,0,0,1,1,850V50A49.05,49.05,0,0,1,50,1H550m0-1H50A50,50,0,0,0,0,50V850a50,50,0,0,0,50,50H550a50,50,0,0,0,50-50V50A50,50,0,0,0,550,0Z"/>
    </g>
    <rect x="12.5" y="12.5" width="575" height="875" rx="39.88" style="fill: #055c9d"/>
    <rect x="65" y="131" width="470" height="470" rx="32.76" style="fill: #fff"/>
    <polygon points="432.5 329 432.5 399 335 399 335 496.5 265 496.5 265 399 167.5 399 167.5 329 265 329 265 231.5 335 231.5 335 329 432.5 329" style="fill: #e40428"/>
  </g>
</svg>
