<svg xmlns="http://www.w3.org/2000/svg" width="600" height="900" viewBox="0 0 600 900">
  <g>
    <g>
      <rect x="0.5" y="0.5" width="599" height="899" rx="49.5" style="fill: #fff"/>
      <path d="M550,1a49.05,49.05,0,0,1,49,49V850a49.05,49.05,0,0,1-49,49H50A49.05,49.05,0,0,1,1,850V50A49.05,49.05,0,0,1,50,1H550m0-1H50A50,50,0,0,0,0,50V850a50,50,0,0,0,50,50H550a50,50,0,0,0,50-50V50A50,50,0,0,0,550,0Z"/>
    </g>
    <rect x="12.5" y="12.5" width="575" height="875" rx="39.88" style="fill: #055c9d"/>
    <rect x="65" y="131" width="470" height="470" rx="32.76" style="fill: #fff"/>
    <g>
      <path d="M502,434V565H462V523H139v42H99V406a15,15,0,0,1,15-15h10a15,15,0,0,1,15,15v71H462V434a15,15,0,0,1,15-15h10A15,15,0,0,1,502,434Z"/>
      <path d="M168,441h88a9,9,0,0,1,9,9v23a0,0,0,0,1,0,0H159a0,0,0,0,1,0,0V450A9,9,0,0,1,168,441Z"/>
    </g>
    <polygon points="388.46 250.81 388.46 297.54 323.37 297.54 323.37 362.63 276.63 362.63 276.63 297.54 211.54 297.54 211.54 250.81 276.63 250.81 276.63 185.72 323.37 185.72 323.37 250.81 388.46 250.81" style="fill: #e40428"/>
  </g>
</svg>
